<?xml version="1.0" encoding="utf-8"?>
<svg version="1.1" id="Layer_1" xmlns="http://www.w3.org/2000/svg" xmlns:xlink="http://www.w3.org/1999/xlink" x="0px" y="0px"
	 viewBox="0 0 712.671 1685.384" enable-background="new 0 0 712.671 1685.384" xml:space="preserve">
<g>
	<path d="M277.427,1146.625c-2.281-21.959-0.329-43.898-1.201-65.822c-0.119-3.003,1.614-5.6,1.427-8.543
		c-1.298-20.375-4.121-44.249-3.955-50.768c0.279-10.946-2.919-20.606-6.869-30.544c-6.436-16.19-8.556-0.993-113.713-33.393
		c-32.784-10.101-99.612-43.192-114.419-74.409C11.33,825.436,116.4,782.523,161.904,717.148c3.899-5.602,8.473-10.38,13.013-15.318
		c3.129-3.403,5.144-7.627,8.095-11.243c22.391-27.436,22.387-36.429,52.336-59.619c5.598-4.335,21.203-16.307,21.406-22.447
		c0.158-4.774,1.816-8.463,6.482-10.949c3.701-1.971,6.695-5.136,10.418-7.379c9.614-5.791,23.437,7.329,15.879,17.52
		c-4.77,6.432,1.299,13.997-6.597,27.665c-0.511,0.885-0.79,1.95-0.977,2.968c-1.007,5.472-0.331,5.995,5.185,6.308
		c7.245,0.411,14.209-1.92,21.471-1.659c4.047,0.145,5.046-4.146,6.03-7.209c2.172-6.766,5.052-13.245,6.955-20.18
		c1.848-6.736,3.829-13.727,6.81-20.233c11.089-24.157,9.245-45.029,36.096-91.742c8.168-14.21,10.547-32.416,26.501-49.89
		c1.549-1.697,2.31-3.507,2.668-5.842c1.293-8.435,9.357-14.549,18.954-9.971c18.426,8.79,41.145,37.614,41.843,38.617
		c1.314,1.891,3.167,1.376,4.471-0.094c6.572-7.412,14.148-5.329,22.321-3.312c11.389,2.81,8.543,12.79,17.52,12.259
		c12.787-0.756,14.453,9.458,17.726,2.594c2.603-5.46,3.201-6.959,2.736-21.142c-0.406-12.389,2.903-11.367,2.842-18.783
		c-0.034-4.053-0.378-8.132,1.182-12.062c0.359-0.904,0.384-2.188,0.029-3.085c-1.783-4.503-0.868-9.204-1.29-13.799
		c-6.284-68.535-0.537-57.538,5.37-99.155c24.778-174.571,24.641-248.212,52.505-274.399c6.552-6.157,12.154-0.907,7.115,6.516
		c-4.431,6.528-11.144,24.083-1.029,21.119c1.49-0.437,2.663-1.403,3.705-2.528c18.181-19.632,30.377-17.5,28.102-10.264
		c-1.994,6.343,5.556,6.918-0.094,13.044c-4,4.336-7.051,4.857-9.371,8.268c-3.798,5.585,6.561,0.09,7.786,5.186
		c0.689,2.865-1.934,4.443-4.039,5.473c-10.841,5.305-14.695,16.227-20.73,25.384c-4.444,6.744-5.78,14.212-5.054,22.205
		c0.629,6.931-0.66,29.936-2.974,35.166c-3.307,7.474-4.165,15.299-4.025,23.389c3.127,180.686,7.047,195.28,7.047,195.28
		c-3.213,33.815-9.106,33.389-7.211,44.952c0.368,2.249-0.951,4.723-1.14,7.124c-0.992,12.633-0.344,25.283-0.356,37.934
		c-0.009,10.234-5.372,37.698-1.35,42.219c8.969,10.08-2.451,17.524-2.516,30.505c-0.018,3.505-0.956,6.947-1.699,10.233
		c-2.236,9.882,0.373,18.494-2.5,23.331c-17.246,29.039,32.514,67.661,49.682,83.917c4.3,4.072,7.988,8.996,13.276,11.745
		c12.284,6.386,20.665,17.124,30.44,26.318c2.75,2.586,11.838,3.264,14.863,14.572c2.206,8.246-4.328,12.282-3.556,19.534
		c0.199,1.866-1.196,3.208-1.882,4.789c-7.071,16.299-17.281,30.042-18.147,48.266c-2.383,50.142-22.779,65.174-31.747,82.615
		c-3.533,6.872-9.783,8.715-18.027,17.748c-22.042,24.152-62.525,42.524-91.884,53.782c-55.123,21.136-31.167,18-71.208,27.816
		c-9.524,2.335-19.35,3.063-28.772,6.175c-17.685,5.841-20.463,3.527-20.429,7.531c0.064,7.448-0.935,15.058,0.282,22.303
		c4.256,25.328-4.127,111.378-20.771,174.514c-3.764,14.278,1.107,19.152-7.098,39.336c-3.819,9.395-14.313,54.726-14.215,55.671
		c0.8,7.706-0.868,15.31-1.766,22.822c-1.015,8.496-0.702,17.051-2.085,25.553c-0.912,5.606-2.202,11.357-1.852,17.218
		c0.665,11.147-3.298,18.997-3.797,35.06c-0.479,15.413-5.938,88.622-5.938,88.622c14.872,160.875-8.498,116.469,25.852,131.922
		c2.55,1.147,5.034,1.893,7.708,1.554c5.279-0.669,9.666,2.127,14.365,3.568c2.953,0.905,4.633,6.06,3.634,10.094
		c-4.041,16.302-7.654,15.556-24.371,16.54c-15.947,0.938-63.941,13.125-64.144-20.909c-0.068-11.441-7.333-23.55-15.73-40.884
		c-0.819-1.691-1.593-3.293-3.339-4.306c-0.736-0.427-1.729-1.509-1.62-2.116c0.971-5.395-16.142-18.982-20.432-22.195
		c-11.933-8.935-11.95-25.927,1.546-35.274c7.162-4.961,11.815-11.932,14.364-20.308c5.103-16.768-5.546-103.047-7.87-119.585
		c-11.007-78.351,12.779-104.395,15.447-129.107C283.582,1214.878,281.288,1183.8,277.427,1146.625z M407.87,559.507
		c0.011,0.101,0.018-0.616-0.166-1.28c-0.264-0.95,0.259-2.299-0.998-2.765c-1.848-0.685-5.692,4.176-6.931,6.708
		c-4.891,9.992-31.221,50.471-33.869,55.607c-30.576,59.317-19.501,49.186-39.212,68.595c-8.021,7.898-38.498,40.993-59.254,49.515
		c-3.304,1.356-2.081,9.328-19.105,12.149c-15.979,2.648-21.475-11-27.864-5.989c-3.382,2.653-3.764,6.798-5.812,10.049
		c-5.914,9.386-12.566,18.312-19.038,27.289c-11.617,16.111-19.701,41.488-27.742,54.798c-13.336,22.079-11.781,20.883-9.893,21.398
		c10.688,2.916,110.696,8.064,128.193,16.291c1.205,0.566,3.434,1.106,4.077-0.611c1.09-2.907,1.759-2.573,15.483-8.938
		c32.244-14.956,40.589-9.214,53.772-12.299c9.194-2.152,17.687,1.65,39.973,10.529c31.103,12.392,33.009,18.533,33.037,10.838
		c0.016-4.279,1.96-7.216,5.427-9.467c36.424-23.646,23.557-19.567,33.539-29.351c16.813-16.479,23.189-53.358,20.819-60.9
		c-3.548-11.294,2.773-20.349,1.383-24.151c-2.52-6.891,0.747-18.172-2.001-26.22c-15.716-46.03-10.726-48.886-5.522-68.891
		c2.39-9.187-4.751-3.366-13.701-10.065c-0.92-0.689-1.682-1.53-2.903-1.832c-6.834-1.688-11.87-6.441-17.38-10.37
		c0,0-7.255-13.008-18.707-20.019c-3.347-2.049-6.413-4.094-18.038-16.466c-4.763-5.069-8.605-10.483-8.125-18.12
		C407.631,570.481,407.205,565.366,407.87,559.507z"/>
</g>
</svg>
